<svg width="134" height="75" viewBox="0 0 134 75" fill="none" xmlns="http://www.w3.org/2000/svg">
<path d="M68.39 1.21496C65.2408 4.28335 64.0901 9.80645 63.545 24.2558C63.1211 34.1304 63.0605 34.3535 61.4859 36.3061C59.6085 38.5377 56.9437 39.4303 54.9452 38.4261C53.0072 37.4777 51.3114 34.5209 51.3114 32.0104C51.3114 29.8904 51.4931 29.6673 53.3706 29.0536C58.0339 27.4915 61.3648 21.8568 59.7296 18.2864C59.124 16.8358 58.7606 16.6685 56.3987 16.6685C51.0086 16.6685 46.9509 22.3589 46.8298 30.0578C46.7693 34.7441 47.7988 37.0872 50.8875 39.2072C54.4607 41.6619 60.4563 40.3787 62.6972 36.6967C63.3028 35.804 63.8478 35.0788 64.0295 35.0788C64.2112 35.0788 64.7563 35.9156 65.2408 36.9198C67.1788 40.7693 71.5998 41.0482 74.0223 37.4777C75.4758 35.3019 75.8997 35.2462 76.3842 37.0314C76.8687 38.7051 78.7462 39.7093 80.9264 39.4303L82.5616 39.2072L81.4715 42.8892C80.0785 47.4081 79.8363 53.1544 80.9264 55.5533C82.0771 58.1196 81.5926 63.6985 80.018 65.5953C78.4434 67.4921 77.7166 67.7153 76.5054 66.5995C75.1124 65.3163 75.2336 56.7249 76.687 51.5365C77.3532 49.3607 77.7166 47.4639 77.5349 47.185C76.9899 46.4039 74.6885 46.7945 73.3561 47.966C71.1759 49.8628 69.359 49.0818 68.2689 45.846C67.6027 43.8376 67.0576 43.1682 66.1492 43.1682C65.1802 43.1682 64.938 43.5029 65.0591 45.065C65.1196 46.2924 65.6041 47.2965 66.3915 47.8544C67.6027 48.6913 67.6633 49.026 67.0576 53.2102C65.7858 62.5827 64.2112 66.3205 60.9408 67.3805C56.6409 68.7753 54.5818 65.93 54.7029 58.5101C54.7635 53.3217 55.6719 49.5839 57.1254 48.1892C58.5789 46.906 59.4268 47.4081 60.093 49.9744C60.8803 52.8196 61.3042 53.266 62.5155 52.3733C63.6661 51.4807 63.6661 49.0818 62.4549 47.4639C61.7887 46.5155 60.9408 46.2366 59.0634 46.2366C54.279 46.2366 50.1002 52.206 50.1002 59.1796C50.1002 62.0248 48.1622 66.5995 46.7693 67.1016C43.7411 68.1616 42.8327 58.008 45.013 47.966C45.4369 46.1808 45.3763 46.125 43.3778 46.2924C42.2271 46.3481 40.5313 46.125 39.5623 45.7345C37.4427 44.9534 34.8385 45.6229 32.7188 47.4639C29.5696 50.1976 27.7527 61.5227 29.6907 65.93C31.8709 70.6163 34.6568 69.9468 37.6243 64.0332L39.6229 60.0722L40.0468 62.9732C40.5313 66.2648 42.9538 69.11 45.2552 69.11C46.6481 69.11 49.2523 66.8226 49.8579 65.0932C50.1607 64.089 50.403 64.2006 51.5537 66.0974C53.7945 69.7795 59.2451 70.6721 63 67.9942C65.0591 66.4879 66.6943 62.3037 67.9661 55.4417C68.5111 52.3733 69.0562 49.807 69.1773 49.6955C69.2379 49.6397 70.0858 49.8628 70.9336 50.2534C72.3266 50.8112 72.5688 51.2018 72.266 52.3175C71.3576 55.9438 71.1759 63.4195 71.9026 65.4279C73.3561 69.5005 77.5955 70.17 80.7447 66.7111C81.956 65.4279 82.4405 65.149 82.6827 65.7069C83.3489 67.4921 85.7714 69.11 87.8911 69.11C89.4657 69.11 90.3741 68.6637 91.8276 67.1574C93.8262 65.0374 95.5219 61.8574 95.5219 60.128C95.5219 58.7333 96.1881 58.5101 98.7317 58.9006C100.851 59.1796 100.973 59.2912 100.973 61.4111C100.973 69.0542 109.088 72.4573 114.115 66.9342C115.144 65.8184 115.447 65.7069 115.508 66.4321C115.508 67.9384 117.93 69.11 121.14 69.11C123.683 69.11 124.41 68.831 126.106 67.269C127.196 66.2648 129.255 65.0932 130.588 64.7027C131.92 64.3679 133.313 63.5311 133.676 62.9732C134.403 61.6901 133.858 61.5227 132.526 62.6385C131.98 63.029 130.951 63.5869 130.224 63.7543C128.892 64.1448 128.831 63.9774 128.831 61.6343C128.831 60.2396 128.165 57.1712 127.317 54.7723C125.743 50.2534 125.379 46.0134 126.409 45.3997C127.378 44.8418 126.469 44.005 125.319 44.3397C121.382 45.5113 120.534 46.6271 118.233 54.047C117.324 56.948 116.234 59.5701 115.75 59.7933C115.265 60.0164 114.902 61.0764 114.902 62.1364C114.902 63.3637 114.357 64.5911 113.327 65.7627C110.239 69.11 105.999 66.99 105.394 61.6901C105.091 59.4027 105.212 59.1238 106.484 58.7891C110.663 57.6175 114.296 53.4333 114.296 49.807C114.296 45.846 110.723 44.4513 106.605 46.7945C104.061 48.1892 102.789 50.0302 101.578 54.2144C100.427 58.008 99.2768 58.7333 97.2782 57.0596C96.4304 56.3343 96.1276 55.3859 96.1276 53.0986C96.1276 48.0776 94.129 45.1208 90.7375 45.1208C89.5868 45.1208 89.4657 44.7861 89.4657 42.164V39.1514L91.2826 39.4303C92.3727 39.5419 93.7051 39.3187 94.6135 38.7609C95.4008 38.2588 96.6726 37.8682 97.3388 37.8682C98.974 37.8682 101.578 36.6409 103.032 35.1346L104.182 33.963L105.212 36.0272C108.725 43.1682 117.324 41.4945 119.444 33.2378C119.747 32.2894 119.626 31.7315 119.202 31.7315C118.838 31.7315 118.536 32.122 118.536 32.5683C118.536 34.242 116.476 37.2546 114.841 37.8682C111.813 39.0398 109.633 37.1988 108.906 32.8472L108.422 30.002L110.784 29.1094C115.568 27.3241 118.899 21.801 117.203 18.4537C116.537 17.2264 115.931 16.8916 113.812 16.7801C108.725 16.4453 104.97 21.1316 104.182 28.7747C103.819 32.1778 103.577 32.7915 101.578 34.6325C100.306 35.804 98.8529 36.7525 98.3684 36.7525C97.5205 36.7525 97.5811 36.3619 98.7317 34.0746C99.8219 31.8988 100.064 30.4483 100.064 25.4831C100.064 20.2947 99.8824 19.3463 98.7923 17.9516C96.1881 14.7717 94.0684 15.8316 90.9192 21.9684L88.9206 25.8736L88.8601 22.08C88.8601 19.1232 88.6178 18.2306 87.8911 17.9516C86.4981 17.5053 83.6517 18.5653 83.894 19.4579C84.0151 19.8484 84.3785 22.861 84.7418 26.1526C85.408 32.0104 85.408 32.2336 83.9545 34.8556C82.2588 38.0356 80.6842 38.6493 79.7757 36.4735C78.8673 34.2977 79.049 25.26 80.0785 21.1874C81.1081 17.2264 80.7447 16.3337 78.4434 17.1706C76.2631 17.9516 75.4758 20.5737 74.9913 28.3841C74.5068 35.6925 73.5984 37.8682 70.9942 37.8682C68.6928 37.8682 67.4816 35.6367 67.1788 30.6715C66.9365 26.8778 67.1182 26.041 68.4506 23.5863C73.235 14.8274 75.7786 3.44652 73.4167 1.0476C71.9632 -0.402912 69.9646 -0.347124 68.39 1.21496ZM72.2054 7.29595C72.1449 11.4801 69.7829 19.7926 67.9661 22.08C67.2393 22.9726 67.1788 22.6379 67.4816 19.7369C68.0266 13.5443 69.4196 5.67807 70.1463 4.17177C71.4181 1.60549 72.2054 2.83284 72.2054 7.29595ZM56.8226 19.0674C57.731 20.9084 56.5804 24.4789 54.4001 26.6547C53.4311 27.6031 52.341 28.3841 51.9776 28.3841C50.4636 28.3841 52.1593 20.4063 54.0973 18.6211C55.3691 17.4495 56.0959 17.5611 56.8226 19.0674ZM114.175 20.5737C114.296 21.8568 114.054 23.6979 113.63 24.5905C112.964 26.1526 110.42 28.3841 109.391 28.3841C107.937 28.3841 109.815 20.2947 111.632 18.6211C113.146 17.2822 113.993 17.8958 114.175 20.5737ZM95.5825 21.5221C95.9459 22.4147 96.1276 25.0368 95.9459 27.6589C95.5825 33.5167 93.6445 37.4777 91.1614 37.7567L89.4657 37.924V33.8514C89.4657 29.4999 90.0713 26.8778 92.0093 22.6379C93.4023 19.6811 94.6135 19.2905 95.5825 21.5221ZM83.4095 50.1418L81.532 53.7681L81.8348 49.2492C82.0165 46.7387 82.7433 43.0008 83.5306 40.8808L84.9235 37.0314L85.1052 41.7735C85.2263 46.125 85.1052 46.8502 83.4095 50.1418ZM92.6755 47.2408C93.3417 47.9102 93.4628 48.4681 93.0994 49.026C92.191 50.3091 92.3727 53.3775 93.4628 55.4975C95.3402 59.1796 92.7361 66.0416 89.4657 66.0416C86.6193 66.0416 85.5897 59.2354 87.6488 54.1586C88.315 52.5407 88.8601 50.5881 88.8601 49.807C88.8601 48.0218 89.8896 46.2366 90.9192 46.2366C91.3431 46.2366 92.1304 46.6829 92.6755 47.2408ZM40.5919 47.6313C40.5313 47.966 40.2285 50.086 39.8652 52.3733C39.0778 57.6733 37.6849 61.969 36.2314 63.5869C35.2624 64.7027 34.9596 64.7585 34.1117 64.1448C32.8399 63.1964 32.7794 56.4459 33.9906 52.6523C35.0807 49.4723 37.7455 46.6829 39.5018 46.906C40.168 47.0176 40.6525 47.3523 40.5919 47.6313ZM111.147 49.6955C111.45 52.8754 108.058 57.9522 105.696 57.9522C104.485 57.9522 106.484 49.9744 108.058 48.3007C109.633 46.7387 110.965 47.3523 111.147 49.6955ZM123.926 61.1322C123.986 62.4711 123.805 63.5311 123.623 63.5311C123.259 63.5311 117.324 61.188 117.324 61.0764C117.324 60.9648 117.748 59.849 118.172 58.4543C118.657 57.1154 119.686 54.1028 120.413 51.8154L121.745 47.6313L122.836 53.2102C123.441 56.2786 123.926 59.849 123.926 61.1322ZM121.14 64.9816C123.32 65.3163 123.381 65.3721 122.412 66.3763C120.958 67.8268 118.233 67.7153 117.082 66.209C115.75 64.4795 115.871 63.9216 117.506 64.2564C118.233 64.4237 119.868 64.7585 121.14 64.9816Z" fill="white"/>
<path d="M52.0988 3.50232C52.2804 3.94863 51.9171 4.72968 51.2509 5.28757C50.2819 6.06861 49.3129 6.18019 44.4073 5.90124C40.713 5.73388 38.1694 5.28757 37.261 4.72968C36.4737 4.22758 34.7174 3.89284 33.385 3.89284C32.1132 3.94863 28.2978 3.78127 24.9668 3.55811C14.5501 2.83286 7.646 5.28757 4.73901 10.7549C3.34607 13.3212 3.28551 13.6001 4.13338 15.7759C4.67845 17.2264 5.76857 18.5095 7.10094 19.3464C8.97837 20.5179 9.76568 20.6295 13.46 20.4621C18.1838 20.1832 22.8471 18.5653 25.4513 16.278C26.3598 15.4411 27.0865 14.6043 27.0865 14.4369C27.0865 14.2696 24.9063 15.1064 22.2415 16.3338C18.6683 17.9516 16.367 18.6211 13.7628 18.7885C8.91781 19.1232 7.10094 18.0632 7.10094 15.0506C7.10094 9.24857 16.0642 5.45493 27.571 6.34755C32.0526 6.68229 32.5371 6.84965 32.2343 7.74227C31.8709 8.74647 30.1752 20.1832 30.1146 21.5779C30.1146 22.0242 29.5696 22.1916 28.6006 21.9684C27.7527 21.8011 26.3598 21.5779 25.5119 21.4105C24.119 21.1316 23.9978 21.2432 24.3612 22.359C24.9063 24.0884 26.3598 25.0368 28.3583 25.0368H29.9329L30.2358 31.341C30.4174 36.362 30.7202 38.0914 31.6892 39.5977C33.2639 42.1082 35.6864 42.8892 37.3821 41.4945C38.6539 40.4345 39.0173 38.984 38.0483 38.984C37.6849 38.984 37.261 39.2072 37.0793 39.5419C36.4131 40.5461 35.1413 40.1556 34.4751 38.7051C34.0512 37.8682 33.7484 34.5767 33.7484 30.9504V24.7021L37.9877 23.7537C42.7722 22.6937 46.8298 21.2432 46.3453 20.7969C46.1636 20.6295 44.9524 20.7411 43.6806 21.02C42.3482 21.3548 39.6835 21.7453 37.7455 21.9684L34.1723 22.359L34.5962 19.9042C34.7779 18.6211 35.4441 15.3296 35.9286 12.6517L36.8976 7.79806L43.9228 8.1328C50.5847 8.41174 51.1298 8.35595 52.7044 7.18439C54.4607 5.90124 54.8241 4.50652 53.6128 3.39074C52.6438 2.49812 51.7354 2.55391 52.0988 3.50232Z" fill="white"/>
<path d="M78.6857 8.96962C77.5955 9.97382 77.7772 11.3128 79.2307 12.5401C80.5631 13.6559 81.8349 13.2654 83.0461 11.4801C84.4391 9.47172 80.5631 7.24017 78.6857 8.96962Z" fill="white"/>
<path d="M17.881 31.1178C13.3389 32.4567 9.94736 35.8598 8.19105 40.7692C7.82768 41.7734 7.52487 47.3523 7.46431 53.4891C7.34318 66.0974 7.04037 67.1574 3.40663 67.7153C0.681326 68.1616 -0.408796 69.1658 0.136265 70.7836C0.620764 72.2342 1.40807 72.1784 9.34174 70.4489C17.1543 68.7752 23.1499 68.2174 25.3908 69.0542C27.6921 69.891 28.2977 72.2899 26.5414 73.6289C25.8147 74.1868 25.5119 74.7447 25.8753 74.9678C26.1781 75.1352 27.2076 74.6331 28.0555 73.852C30.7202 71.3973 28.9639 67.9942 24.4218 66.7669C21.757 66.0974 11.7037 65.9858 9.52343 66.5995C8.37274 66.9342 8.31218 66.8226 8.79668 65.93C9.94736 63.8658 10.7347 59.6259 11.6431 50.5323C12.8544 38.203 14.3078 34.5767 19.1528 32.2893C19.9401 31.8988 21.3936 31.7872 22.6049 32.0104C25.8147 32.5683 27.3893 35.6925 27.3893 41.7734C27.3893 44.3955 27.0259 47.4639 26.5414 48.6355C24.9063 53.0428 20.0613 56.5017 17.4571 55.2186C15.2163 54.1028 14.1867 51.4249 14.6107 47.966C14.9135 45.1208 14.8529 44.9534 14.0656 45.9018C11.9459 48.4123 13.5811 54.4375 16.7303 55.9438C19.0923 57.1154 20.1218 57.0596 23.2105 55.7207C26.2386 54.3259 28.4794 51.4807 29.8724 47.0176C31.6287 41.3829 29.8724 34.1862 26.1781 31.9546C24.3612 30.8388 20.1824 30.4483 17.881 31.1178Z" fill="white"/>
</svg>
